<?xml version="1.0" encoding="UTF-8" standalone="no"?><svg width="100%" height="100%" viewBox="0 0 2084 2084" version="1.1" xmlns="http://www.w3.org/2000/svg" xmlns:xlink="http://www.w3.org/1999/xlink" xml:space="preserve" xmlns:serif="http://www.serif.com/" style="fill-rule:evenodd;clip-rule:evenodd;stroke-linejoin:round;stroke-miterlimit:2;"><g id="Diseño-sin-título.png" xmlns:www.serif.com="http://www.serif.com/" www.serif.com:id="Diseño sin título.png"><path d="M1059.833,600.358c115.261,9.396 150.106,100.715 99.789,188.828c-10.016,17.54 -30.447,47.577 -18.766,48.563c5.808,0.492 42.61,-5.364 43.144,32.097c0.569,39.667 -48.279,30.923 -50.467,36.447c-3.133,7.913 8.64,110.886 22.977,142.957c2.404,5.378 13.828,40.613 32.637,69.587c14.634,22.541 14.096,22.627 31.048,43.762c15.873,19.789 -1.922,19.669 -46.996,56.75c-35.535,29.234 -71.322,61.054 -105.607,130.186c-1.647,3.318 -6.933,13.977 -15.79,43.485c-7.849,26.136 -16.506,9.305 -17.099,7.93c-0.743,-1.729 -11.111,-56.653 -49.351,-105.822c-93.871,-120.699 -148.82,-104.619 -121.746,-133.504c3.716,-3.964 67.99,-78.151 81.46,-197.384c1.295,-11.468 11.689,-61.742 -0.916,-62.625c-16.891,-1.183 -41.983,2.723 -45.034,-31.76c-0.295,-3.329 -2.586,-29.202 27.739,-31.523c11.779,-0.903 27.271,2.309 15.57,-20.444c-9.175,-17.843 -73.253,-104.279 -16.316,-174.38c42.006,-51.715 132.175,-43.211 133.721,-43.151l0.003,0Z" style="fill-opacity:0.99;"></path><path d="M1522.507,892.685c0.844,25.865 22.508,235.262 -167.502,403.495c-100.867,89.307 -241.674,116.315 -247.988,107.382c-2.589,-3.664 11.386,-69.778 74.105,-133.681c67.947,-69.232 233.268,-147.775 218.458,-382.863c-4.806,-76.297 99.726,-94.451 117.585,-25.956c5.944,22.801 4.869,27.831 5.34,31.623l0.003,0Z"></path><path d="M559.684,915.571c1.066,-26.376 0.928,-26.216 1.15,-28.485c5.384,-54.373 43.763,-71.15 68.288,-67.626c67.811,9.742 53.672,81.789 53.443,87.584c-8.528,217.007 146.895,282.339 232.58,371.598c53.877,56.121 65.32,117.647 63.656,122.699c-4.271,12.979 -138.096,-23.816 -222.737,-91.031c-188.944,-150.038 -195.519,-323.798 -196.383,-394.739l0.003,0Z"></path><path d="M1184.029,417.694c21.832,2.995 10.675,22.858 10.074,24.141c-53.18,113.486 -47.609,115.795 -52.692,125.428c-6.716,12.728 -10.704,5.732 -38.639,-1.76c-31.175,-8.361 -87.433,-5.252 -95.033,-4.832c-6.248,0.346 -46.898,9.962 -51.588,12.785c-17.203,10.35 -11.744,-27.868 -63.147,-129.803c-13.68,-27.131 10.735,-28.108 19.919,-23.613c20.662,10.108 31.504,0.603 41.748,18.821c18.688,33.235 81.916,-24.667 49.617,-42.396c-15.278,-8.387 -16.004,-9.607 -16.168,-26.708c-0.182,-18.861 28.334,-14.58 32.308,-19.226c1.734,-2.026 -2.179,-40.356 19.231,-39.753c37.957,1.066 22.17,35.964 27.326,40.956c11.368,11.013 33.891,-6.833 32.154,26.59c-1.127,21.704 -20.991,14.983 -26.514,23.601c-4.791,7.476 10.12,30.291 13.316,33.42c34.29,33.575 47.161,-3.689 54.761,-5.607c22.003,-5.544 21.101,-8.384 43.332,-12.048l-0.006,0.003Z" style="fill-opacity:0.98;"></path><path d="M608.847,652.624c41.812,-100.018 163.168,-49.403 160.787,22.913c-4.199,127.503 -195.039,108.088 -160.787,-22.913Z"></path><path d="M1478.713,675.531c-1.298,23.058 -1.436,49.643 -39.957,74.999c-55.252,36.369 -149.066,-21.49 -117.81,-103.187c26.736,-69.881 150.057,-72.07 157.767,28.188Z" style="fill-opacity:0.99;"></path><g><path d="M591.116,1723.223c-7.401,0 -13.064,-1.962 -16.989,-5.887c-3.925,-3.925 -5.887,-9.588 -5.887,-16.989l0,-191.421c0,-7.401 1.962,-13.064 5.887,-16.989c3.925,-3.925 9.588,-5.887 16.989,-5.887l120.101,0c5.607,0 9.924,1.458 12.952,4.373c3.028,2.916 4.542,7.065 4.542,12.447c0,5.607 -1.514,9.924 -4.542,12.952c-3.028,3.028 -7.345,4.542 -12.952,4.542l-101.598,0l0,65.265l94.196,0c5.831,0 10.205,1.458 13.12,4.373c2.916,2.916 4.373,7.177 4.373,12.784c0,5.607 -1.458,9.868 -4.373,12.784c-2.916,2.916 -7.289,4.373 -13.12,4.373l-94.196,0l0,68.965l101.598,0c5.607,0 9.924,1.458 12.952,4.373c3.028,2.916 4.542,7.177 4.542,12.784c0,5.607 -1.514,9.868 -4.542,12.784c-3.028,2.916 -7.345,4.373 -12.952,4.373l-120.101,0Z" style="fill-rule:nonzero;"></path><path d="M821.224,1726.587c-18.615,0 -32.632,-5.327 -42.052,-15.98c-9.42,-10.653 -14.129,-26.297 -14.129,-46.93l0,-159.125c0,-6.953 1.794,-12.223 5.383,-15.812c3.588,-3.588 8.747,-5.383 15.475,-5.383c6.728,0 11.943,1.794 15.643,5.383c3.701,3.588 5.551,8.859 5.551,15.812l0,157.106c0,10.317 2.187,17.942 6.56,22.876c4.373,4.934 10.597,7.401 18.671,7.401c1.794,0 3.476,-0.056 5.046,-0.168c1.57,-0.112 3.14,-0.28 4.71,-0.505c3.14,-0.449 5.271,0.392 6.392,2.523c1.121,2.131 1.682,6.448 1.682,12.952c0,5.607 -1.121,9.98 -3.364,13.12c-2.243,3.14 -5.943,5.046 -11.102,5.719c-2.243,0.224 -4.598,0.449 -7.065,0.673c-2.467,0.224 -4.934,0.336 -7.401,0.336Z" style="fill-rule:nonzero;"></path><path d="M989.096,1725.915c-6.953,0 -12.279,-1.962 -15.98,-5.887c-3.701,-3.925 -5.551,-9.364 -5.551,-16.316l0,-195.794c0,-7.177 1.906,-12.616 5.719,-16.316c3.813,-3.701 9.195,-5.551 16.148,-5.551l81.076,0c26.016,0 46.089,6.224 60.218,18.671c14.129,12.447 21.194,29.885 21.194,52.313c0,14.578 -3.196,27.138 -9.588,37.679c-6.392,10.541 -15.643,18.615 -27.754,24.222c-12.111,5.607 -26.801,8.41 -44.07,8.41l3.028,-5.046l11.102,0c9.195,0 17.213,2.243 24.054,6.728c6.84,4.486 12.84,11.55 17.998,21.194l25.231,46.762c2.691,4.71 3.925,9.308 3.701,13.793c-0.224,4.486 -1.906,8.13 -5.046,10.934c-3.14,2.803 -7.738,4.205 -13.793,4.205c-6.055,0 -10.99,-1.29 -14.802,-3.869c-3.813,-2.579 -7.177,-6.56 -10.092,-11.943l-33.978,-62.573c-4.037,-7.625 -8.803,-12.728 -14.298,-15.307c-5.495,-2.579 -12.503,-3.869 -21.026,-3.869l-31.96,0l0,75.357c0,6.953 -1.794,12.391 -5.383,16.316c-3.588,3.925 -8.971,5.887 -16.148,5.887Zm21.531,-129.52l52.481,0c15.475,0 27.194,-3.196 35.155,-9.588c7.962,-6.392 11.943,-15.98 11.943,-28.764c0,-12.56 -3.981,-22.035 -11.943,-28.427c-7.962,-6.392 -19.68,-9.588 -35.155,-9.588l-52.481,0l0,76.366Z" style="fill-rule:nonzero;"></path><path d="M1271.013,1726.587c-18.615,0 -34.651,-3.476 -48.107,-10.429c-13.457,-6.953 -23.829,-16.821 -31.118,-29.605c-7.289,-12.784 -10.934,-27.923 -10.934,-45.416c0,-17.045 3.532,-31.96 10.597,-44.743c7.065,-12.784 16.821,-22.82 29.268,-30.109c12.447,-7.289 26.633,-10.934 42.557,-10.934c11.662,0 22.147,1.906 31.455,5.719c9.308,3.813 17.269,9.308 23.886,16.484c6.616,7.177 11.662,15.868 15.139,26.072c3.476,10.205 5.214,21.699 5.214,34.483c0,4.037 -1.402,7.121 -4.205,9.251c-2.803,2.131 -6.784,3.196 -11.943,3.196l-107.99,0l0,-24.222l94.533,0l-5.383,5.046c0,-10.317 -1.514,-18.951 -4.542,-25.904c-3.028,-6.953 -7.401,-12.279 -13.12,-15.98c-5.719,-3.701 -12.84,-5.551 -21.362,-5.551c-9.42,0 -17.438,2.187 -24.054,6.56c-6.616,4.373 -11.662,10.541 -15.139,18.503c-3.476,7.962 -5.214,17.438 -5.214,28.427l0,2.355c0,18.391 4.317,32.128 12.952,41.211c8.635,9.083 21.362,13.625 38.183,13.625c5.831,0 12.391,-0.729 19.68,-2.187c7.289,-1.458 14.186,-3.981 20.69,-7.569c4.71,-2.691 8.859,-3.869 12.447,-3.532c3.588,0.336 6.448,1.626 8.579,3.869c2.131,2.243 3.42,4.99 3.869,8.242c0.449,3.252 -0.168,6.56 -1.85,9.924c-1.682,3.364 -4.542,6.28 -8.579,8.747c-7.85,4.934 -16.877,8.579 -27.081,10.934c-10.205,2.355 -19.68,3.532 -28.427,3.532Z" style="fill-rule:nonzero;"></path><path d="M1411.298,1786.469c-4.934,0 -8.971,-1.29 -12.111,-3.869c-3.14,-2.579 -4.99,-5.999 -5.551,-10.261c-0.561,-4.261 0.168,-8.747 2.187,-13.457l22.876,-50.799l0,17.494l-61.228,-141.631c-2.018,-4.934 -2.691,-9.532 -2.018,-13.793c0.673,-4.261 2.747,-7.681 6.224,-10.261c3.476,-2.579 8.242,-3.869 14.298,-3.869c5.158,0 9.308,1.177 12.447,3.532c3.14,2.355 5.943,6.784 8.41,13.288l45.416,113.372l-10.092,0l46.425,-113.709c2.467,-6.28 5.383,-10.597 8.747,-12.952c3.364,-2.355 7.85,-3.532 13.457,-3.532c4.934,0 8.859,1.29 11.775,3.869c2.916,2.579 4.71,5.943 5.383,10.092c0.673,4.149 -0.112,8.691 -2.355,13.625l-81.749,186.711c-2.916,6.28 -6.055,10.541 -9.42,12.784c-3.364,2.243 -7.738,3.364 -13.12,3.364Z" style="fill-rule:nonzero;"></path></g></g></svg>