<?xml version="1.0" encoding="UTF-8" standalone="no"?><svg width="2084" height="2084" viewBox="0 0 2084 2084" version="1.1" xmlns="http://www.w3.org/2000/svg" xmlns:xlink="http://www.w3.org/1999/xlink" xml:space="preserve" style="fill-rule:evenodd;clip-rule:evenodd;stroke-linejoin:round;stroke-miterlimit:2;"><g id="Diseño-sin-título.png"><path d="M1072.975,667.479c166.192,13.7 216.433,146.85 143.883,275.325c-14.442,25.575 -43.9,69.371 -27.058,70.808c8.375,0.717 61.438,-7.821 62.208,46.8c0.821,57.837 -69.612,45.087 -72.767,53.142c-4.517,11.537 12.458,161.679 33.129,208.442c3.467,7.842 19.938,59.217 47.058,101.463c21.1,32.867 20.325,32.992 44.767,63.808c22.888,28.854 -2.771,28.679 -67.762,82.746c-51.238,42.625 -102.838,89.021 -152.271,189.821c-2.375,4.838 -9.996,20.379 -22.767,63.404c-11.317,38.108 -23.8,13.567 -24.654,11.562c-1.071,-2.521 -16.021,-82.604 -71.158,-154.296c-135.35,-175.987 -214.579,-152.542 -175.542,-194.658c5.358,-5.779 98.033,-113.95 117.454,-287.8c1.867,-16.721 16.854,-90.025 -1.321,-91.312c-24.354,-1.725 -60.533,3.971 -64.933,-46.308c-0.425,-4.854 -3.729,-42.579 39.996,-45.962c16.983,-1.317 39.321,3.367 22.45,-29.808c-13.229,-26.017 -105.621,-152.046 -23.525,-254.258c60.567,-75.404 190.579,-63.004 192.808,-62.917l0.004,0Z" style="fill:#1b2a4a;fill-opacity:0.99;"></path><path d="M1740.092,1093.713c1.217,37.712 32.454,343.029 -241.517,588.325c-145.438,130.217 -348.463,169.596 -357.567,156.571c-3.733,-5.342 16.417,-101.742 106.85,-194.917c97.971,-100.946 336.342,-215.467 314.987,-558.242c-6.929,-111.246 143.792,-137.717 169.542,-37.846c8.571,33.246 7.021,40.579 7.7,46.108l0.004,0Z" style="fill:#1b2a4a;"></path><path d="M351.825,1127.083c1.537,-38.458 1.337,-38.225 1.658,-41.533c7.762,-79.279 63.1,-103.742 98.463,-98.604c97.775,14.204 77.387,119.254 77.058,127.704c-12.296,316.412 211.804,411.671 335.35,541.817c77.683,81.829 94.183,171.537 91.783,178.904c-6.158,18.925 -199.117,-34.725 -321.158,-132.729c-272.433,-218.767 -281.913,-472.121 -283.158,-575.558l0.004,0Z" style="fill:#1b2a4a;"></path><path d="M1252.05,401.142c31.479,4.367 15.392,33.329 14.525,35.2c-76.679,165.471 -68.646,168.837 -75.975,182.883c-9.683,18.558 -15.433,8.358 -55.712,-2.567c-44.95,-12.192 -126.067,-7.658 -137.025,-7.046c-9.008,0.504 -67.621,14.525 -74.383,18.642c-24.804,15.092 -16.933,-40.633 -91.05,-189.262c-19.725,-39.558 15.479,-40.983 28.721,-34.429c29.792,14.738 45.425,0.879 60.196,27.442c26.946,48.458 118.113,-35.967 71.542,-61.817c-22.029,-12.229 -23.075,-14.008 -23.312,-38.942c-0.263,-27.5 40.854,-21.258 46.583,-28.033c2.5,-2.954 -3.142,-58.842 27.729,-57.963c54.729,1.554 31.967,52.438 39.4,59.717c16.392,16.058 48.867,-9.963 46.363,38.771c-1.625,31.646 -30.267,21.846 -38.229,34.413c-6.908,10.9 14.592,44.167 19.2,48.729c49.442,48.954 68,-5.379 78.958,-8.175c31.725,-8.083 30.425,-12.225 62.479,-17.567l-0.008,0.004Z" style="fill:#1b2a4a;fill-opacity:0.98;"></path><path d="M422.712,743.688c60.288,-145.833 235.267,-72.033 231.833,33.408c-6.054,185.908 -281.221,157.6 -231.833,-33.408Z" style="fill:#1b2a4a;"></path><path d="M1676.946,777.088c-1.871,33.621 -2.071,72.383 -57.612,109.354c-79.667,53.029 -214.933,-31.333 -169.867,-150.454c38.55,-101.892 216.362,-105.083 227.479,41.1Z" style="fill:#1b2a4a;fill-opacity:0.99;"></path></g></svg>